<?xml version="1.0" encoding="utf-8"?>
<!-- Generator: Adobe Illustrator 16.0.0, SVG Export Plug-In . SVG Version: 6.00 Build 0)  -->
<!DOCTYPE svg PUBLIC "-//W3C//DTD SVG 1.1//EN" "http://www.w3.org/Graphics/SVG/1.1/DTD/svg11.dtd">
<svg version="1.1" id="Layer_1" xmlns="http://www.w3.org/2000/svg" xmlns:xlink="http://www.w3.org/1999/xlink" x="0px" y="0px"
	 width="221.011px" height="57.6px" viewBox="0 0 221.011 57.6" enable-background="new 0 0 221.011 57.6" xml:space="preserve">
<path fill-rule="evenodd" clip-rule="evenodd" fill="#FFFFFF" d="M203.666,22.56c6.146-1.254,5.543,12.644,0.479,12.24
	C199.361,34.418,199.736,23.362,203.666,22.56z"/>
<path fill-rule="evenodd" clip-rule="evenodd" d="M215.094,2.45c-0.018,12.622-0.518,24.761-0.48,37.44c-5.358,0-10.718,0-16.08,0
	c-0.211-0.426,0.52-0.77,0.721-0.96c3.619-3.414,3.713-17.426-5.279-14.64c-4.917,1.523-4.977,13.29-0.72,15.6
	c-4.832,0.128-10.196-0.276-14.641,0.24c-0.624-1.457-0.916-3.244-1.2-5.04c-0.763,1.317-0.816,3.343-1.199,5.04
	c-4.641,0-9.28,0-13.92,0c-0.348-0.503,0.723-1.532,1.199-2.64c0.514-1.193,0.891-2.471,0.96-3.84
	c-4.873,0.149-15.583-0.374-12.239,6.48c-4.4,0-8.801,0-13.2,0c-3.61-15.249,14.582-11.903,26.88-12.96
	c2.099-6.759-9.653-7.184-11.28-2.88c-3.92-1.28-7.956-2.443-11.76-3.84c-0.826,1.173-1.285,2.715-1.92,4.08
	c-9.417-4.326-10.149,7.344-10.08,15.6c-8.56,0-17.12,0-25.68,0c-1.58-4.204-0.148-15.734-4.801-17.04
	c-9.445-2.651-6.261,11.599-5.52,17.04c-4.24,0-8.48,0-12.72,0c-0.604-2.117-0.864-4.576-1.2-6.96
	c-0.944,2.335-1.397,5.163-2.88,6.96c-7.078,0-16.626,0-24.721,0c-4.602,0-9.82,1.253-10.079-2.88
	c-1.098,0.583-1.206,2.155-2.16,2.88c-11.28,0-22.561,0-33.84,0c-1.899-3.718-3.187-8.761-2.641-13.68
	c1.727-15.552,31.214-21.225,36.96-6.24c-3.786,1.094-7.424,2.336-11.04,3.6c-1.741-0.952-2.032-2.667-3.84-3.12
	c-6.093-1.525-9.04,2.727-9.36,6.72c-0.992,12.386,12.931,14.955,14.881,4.56c3.129-0.311,6.261-0.619,9.6-0.72
	c-2.62-21.047,30.083-24.648,37.2-9.84c-0.133-1.707-0.395-3.286-0.72-4.8c3.918-0.641,8.02-1.1,11.76-1.92
	c0.593,1.487,0.636,3.524,0.96,5.28c2.819-4.847,9.085-9.138,16.319-7.92c9.171,1.543,8.61,14.282,10.32,24
	c1.038-6.562,0.048-15.153,0.72-22.08c4.053,0.027,8.289-0.128,12,0.24c0,1.68,0,3.36,0,5.04c1.297-0.907,1.693-3.058,3.36-4.32
	c3.215-2.434,7.768-1.357,11.28,0.24c-0.47,1.371-1.06,2.62-1.681,3.84c2-3.09,5.482-5.911,11.04-6
	c7.679-0.124,18.803,2.769,22.08,6.96c0.854,1.092,1.406,2.805,1.681,4.08c1.823-8.918,16.402-13.511,23.52-5.76
	c0.418-5.022,0.18-10.7,0.24-16.08C206.51,2.075,210.694,2.371,215.094,2.45z M61.975,39.17c7.866-0.596,8.555-18.914-1.2-17.76
	C52.111,22.435,52.831,39.863,61.975,39.17z"/>
</svg>
